<svg width="31" height="23" viewBox="0 0 31 23" fill="none" xmlns="http://www.w3.org/2000/svg">
<g clip-path="url(#clip0_4_165)">
<path d="M21.0191 3.26119H1.60709C0.718963 3.26119 0 2.53172 0 1.6306C0 0.729478 0.718963 0 1.60709 0H21.0191C21.9072 0 22.6262 0.729478 22.6262 1.6306C22.6262 2.53172 21.9072 3.26119 21.0191 3.26119Z" fill="#791815"/>
<path d="M29.3929 13.1306H1.60709C0.718963 13.1306 0 12.4011 0 11.5C0 10.5989 0.718963 9.8694 1.60709 9.8694H29.3929C30.281 9.8694 31 10.5989 31 11.5C31 12.4011 30.281 13.1306 29.3929 13.1306Z" fill="#791815"/>
<path d="M21.0191 23H1.60709C0.718963 23 0 22.2705 0 21.3694C0 20.4683 0.718963 19.7388 1.60709 19.7388H21.0191C21.9072 19.7388 22.6262 20.4683 22.6262 21.3694C22.6262 22.2705 21.9072 23 21.0191 23Z" fill="#791815"/>
</g>
<defs>
<clipPath id="clip0_4_165">
<rect width="31" height="23" fill="white"/>
</clipPath>
</defs>
</svg>
