<?xml version="1.0" encoding="UTF-8"?>
<svg id="Camada_1" xmlns="http://www.w3.org/2000/svg" xmlns:xlink="http://www.w3.org/1999/xlink" version="1.1" viewBox="0 0 167.79 78.8">
  <!-- Generator: Adobe Illustrator 29.8.4, SVG Export Plug-In . SVG Version: 2.1.1 Build 6)  -->
  <defs>
    <style>
      .st0 {
        fill: none;
      }

      .st1 {
        clip-path: url(#clippath-1);
      }

      .st2 {
        fill: #c5a9ab;
        fill-rule: evenodd;
      }

      .st3 {
        clip-path: url(#clippath);
      }
    </style>
    <clipPath id="clippath">
      <rect class="st0" width="167.79" height="78.8"/>
    </clipPath>
    <clipPath id="clippath-1">
      <rect class="st0" y="0" width="167.79" height="78.8"/>
    </clipPath>
  </defs>
  <g id="Arte_15">
    <g class="st3">
      <g class="st1">
        <path class="st2" d="M76.72,75.63v-6.58h-2.08v8.66h7.5v-2.08h-5.42ZM87.88,77.7h2.08v-8.66h-2.08v8.66ZM102.53,69.04v5.39l-4.32-5.39h-2.08v8.66h2.08v-5.18l4.32,5.18h2.08v-8.66h-2.08ZM118.76,72.56h-4.45v1.67h2.62v.91c-.47.48-1.12.78-1.85.78-1.41,0-2.57-1.14-2.57-2.56s1.16-2.57,2.57-2.57c.87,0,1.45.28,1.99.77l1.58-1.02c-.84-1.13-2.06-1.76-3.57-1.76-2.51,0-4.57,2.05-4.57,4.57s2.05,4.55,4.57,4.55c1.51,0,2.84-.72,3.66-1.84h.02v-3.52ZM130.77,70.91v-1.87h-6.52v8.66h6.52v-1.85h-4.44v-1.55h3.5v-1.85h-3.5v-1.54h4.44ZM144.14,77.7l-1.91-2.61c.92-.49,1.55-1.38,1.55-2.64,0-1.89-1.34-3.41-3.1-3.41h-4.21v8.66h2.12v-2.16h1.52l1.43,2.16h2.61ZM138.59,71.18h1.77c.71,0,1.28.57,1.28,1.28s-.59,1.19-1.29,1.19h-1.76v-2.46ZM149.73,77.7h2.08v-8.66h-2.08v8.66ZM164.09,70.91v-1.87h-6.52v8.66h6.52v-1.85h-4.44v-1.55h3.5v-1.85h-3.5v-1.54h4.44Z"/>
        <path class="st2" d="M44.26,35.15h-12.12c.42-5.72,2.52-9.25,6.39-9.25,4.43,0,5.73,6.14,5.73,9.25M51.09,42.05c1.64,0,2.98-1.34,2.98-2.98v-3.91c-.81-23.81-32.95-21.8-32.95,3.19,0,14.21,10.09,19.34,18,19.34,8.41,0,13.71-5.63,15.05-9.5,0,0-2.94-2.69-7.57-2.78-.59,1.09-3.37,4.54-6.9,4.54-3.11,0-6.98-1.01-7.65-7.91h19.03Z"/>
        <path class="st2" d="M10.58,0C13.8,0,16.42,2.62,16.42,5.84s-2.62,5.85-5.84,5.85-5.84-2.62-5.84-5.85S7.35,0,10.58,0"/>
        <path class="st2" d="M5.13,57.18c0,6.9-2.94,11.94-5.13,14.38,0,0,1.09,4.54,4.37,7.23,6.05-3.62,11.35-10.51,11.35-21.44V18.33H5.13v38.85Z"/>
        <path class="st2" d="M71.54,41.88c6.06,2.32,4.79,8.24-.33,8.24-4.71,0-6.73-5.21-6.73-5.21,0,0-4.12,1.09-7.23,3.28.76,2.69,4.29,9.5,14.29,9.5,15.63,0,21.13-18.11,4.54-24.22l-4.79-1.77c-3.41-1.25-2.75-5.97,1.43-5.97,3.36,0,5.89,3.36,5.89,3.36,4.88-.93,6.64-3.62,6.64-3.62-.68-1.68-4.12-7.15-13.12-7.15-15.4,0-18.33,16.88-5.04,21.87l4.45,1.68Z"/>
        <path class="st2" d="M120.79,48.02s-3.62-2.61-7.99-2.69c-.5.93-2.52,4.46-5.55,4.46-10.41,0-9.93-23.55-.25-23.55,2.77,0,4.2,1.93,5.47,3.78,4.29-.34,8.07-2.86,8.07-2.86-1.43-3.28-5.13-8.83-13.71-8.83-23.6,0-24.82,39.36,0,39.36,8.66,0,13.2-6.73,13.96-9.67"/>
        <path class="st2" d="M125.5,57.02c2.98.45,7.47.54,10.43.02v-22.56c0-3.36,1.52-7.24,5.8-7.24,1.51,0,2.61.34,3.28.68,1.6-2.1,2.44-5.97,2.1-8.41-1.01-.59-2.78-1.18-4.96-1.18-2.94,0-6.22,2.27-7.99,5.55v-5.55h-8.66v38.68Z"/>
        <path class="st2" d="M157.51,0c3.23,0,5.84,2.62,5.84,5.84s-2.61,5.85-5.84,5.85-5.84-2.62-5.84-5.85S154.28,0,157.51,0"/>
        <path class="st2" d="M162.66,39.45c0,6.89,2.95,11.94,5.13,14.38,0,0-1.09,4.54-4.37,7.23-6.06-3.62-11.35-10.51-11.35-21.44v-21.28h10.6v21.11Z"/>
      </g>
    </g>
  </g>
</svg>