<svg width="104" height="70" viewBox="0 0 104 70" fill="none" xmlns="http://www.w3.org/2000/svg">
<path d="M103.672 2.72726V60.9091H98.3594V8.29544H98.0185L84.3821 17.3579V11.8466L98.1321 2.72726H103.672Z" fill="#FFCCCC"/>
<path d="M54.723 61.7046C50.6321 61.7046 47.1378 60.5303 44.2401 58.1818C41.3613 55.8144 39.1454 52.3958 37.5923 47.9261C36.0582 43.4564 35.2912 38.0871 35.2912 31.8182C35.2912 25.5682 36.0582 20.2178 37.5923 15.7671C39.1454 11.2974 41.3707 7.87879 44.2685 5.51137C47.1851 3.12501 50.67 1.93182 54.723 1.93182C58.776 1.93182 62.2514 3.12501 65.1492 5.51137C68.0658 7.87879 70.2912 11.2974 71.8253 15.7671C73.3783 20.2178 74.1548 25.5682 74.1548 31.8182C74.1548 38.0871 73.3783 43.4564 71.8253 47.9261C70.2912 52.3958 68.0753 55.8144 65.1776 58.1818C62.2988 60.5303 58.8139 61.7046 54.723 61.7046ZM54.723 56.9318C59.2116 56.9318 62.7154 54.7443 65.2344 50.3693C67.7533 45.9754 69.0128 39.7917 69.0128 31.8182C69.0128 26.5152 68.4351 21.9886 67.2798 18.2386C66.1435 14.4697 64.5052 11.5909 62.3651 9.60228C60.2438 7.61364 57.6965 6.61932 54.723 6.61932C50.2723 6.61932 46.7779 8.83523 44.2401 13.2671C41.7022 17.6799 40.4332 23.8636 40.4332 31.8182C40.4332 37.1212 41.0014 41.6477 42.1378 45.3977C43.2931 49.1477 44.9313 52.0076 47.0526 53.9773C49.1927 55.947 51.7495 56.9318 54.723 56.9318Z" fill="#FFCCCC"/>
<path d="M29.1761 0L10.4261 69.6591H0L18.75 0H29.1761Z" fill="#FFCCCC"/>
</svg>
