<svg width="122" height="70" viewBox="0 0 122 70" fill="none" xmlns="http://www.w3.org/2000/svg">
<path d="M85.7173 60.909V57.017L104.723 35.6534C107.204 32.8503 109.202 30.4545 110.717 28.4659C112.232 26.4772 113.331 24.6401 114.013 22.9545C114.713 21.2689 115.064 19.517 115.064 17.6988C115.064 15.4829 114.543 13.5511 113.501 11.9034C112.479 10.2367 111.068 8.93934 109.268 8.01131C107.469 7.08328 105.443 6.61926 103.189 6.61926C100.803 6.61926 98.7097 7.13063 96.9105 8.15335C95.1302 9.17608 93.7476 10.5776 92.7627 12.3579C91.7779 14.1382 91.2855 16.1837 91.2855 18.4943H86.2002C86.2002 15.2746 86.9389 12.4242 88.4162 9.94313C89.9124 7.44313 91.9483 5.4829 94.5241 4.06244C97.1188 2.64199 100.054 1.93176 103.331 1.93176C106.57 1.93176 109.448 2.63252 111.967 4.03404C114.486 5.41661 116.465 7.30108 117.905 9.68744C119.344 12.0738 120.064 14.7443 120.064 17.6988C120.064 19.839 119.685 21.9128 118.928 23.9204C118.189 25.928 116.91 28.1628 115.092 30.6249C113.274 33.0871 110.755 36.0984 107.535 39.659L93.1037 55.767V56.1363H121.882V60.909H85.7173Z" fill="#FFCCCC"/>
<path d="M54.723 61.7045C50.632 61.7045 47.1377 60.5303 44.24 58.1818C41.3612 55.8143 39.1453 52.3958 37.5923 47.9261C36.0582 43.4564 35.2911 38.0871 35.2911 31.8181C35.2911 25.5681 36.0582 20.2177 37.5923 15.767C39.1453 11.2973 41.3707 7.87873 44.2684 5.51131C47.1851 3.12494 50.6699 1.93176 54.723 1.93176C58.776 1.93176 62.2514 3.12494 65.1491 5.51131C68.0658 7.87873 70.2911 11.2973 71.8252 15.767C73.3783 20.2177 74.1548 25.5681 74.1548 31.8181C74.1548 38.0871 73.3783 43.4564 71.8252 47.9261C70.2911 52.3958 68.0752 55.8143 65.1775 58.1818C62.2987 60.5303 58.8139 61.7045 54.723 61.7045ZM54.723 56.9318C59.2116 56.9318 62.7154 54.7443 65.2343 50.3693C67.7533 45.9753 69.0127 39.7916 69.0127 31.8181C69.0127 26.5151 68.4351 21.9886 67.2798 18.2386C66.1434 14.4696 64.5052 11.5909 62.365 9.60222C60.2438 7.61358 57.6964 6.61926 54.723 6.61926C50.2722 6.61926 46.7779 8.83517 44.24 13.267C41.7021 17.6799 40.4332 23.8636 40.4332 31.8181C40.4332 37.1212 41.0014 41.6477 42.1377 45.3977C43.293 49.1477 44.9313 52.0075 47.0525 53.9772C49.1927 55.9469 51.7495 56.9318 54.723 56.9318Z" fill="#FFCCCC"/>
<path d="M29.1761 0L10.4261 69.6591H0L18.75 0H29.1761Z" fill="#FFCCCC"/>
</svg>
