<svg width="124" height="70" viewBox="0 0 124 70" fill="none" xmlns="http://www.w3.org/2000/svg">
<path d="M104.609 61.7045C101.03 61.7045 97.8291 61.0606 95.0071 59.7727C92.1851 58.4659 89.9503 56.6571 88.3025 54.3465C86.6548 52.0359 85.7836 49.3749 85.6889 46.3636H91.0582C91.1529 48.4848 91.8063 50.3409 93.0185 51.9318C94.2306 53.5037 95.8404 54.7348 97.848 55.6249C99.8556 56.4962 102.09 56.9318 104.553 56.9318C107.242 56.9318 109.609 56.4299 111.655 55.4261C113.719 54.4223 115.329 53.0492 116.484 51.3068C117.659 49.5454 118.246 47.5568 118.246 45.3409C118.246 42.9924 117.649 40.9185 116.456 39.1193C115.263 37.32 113.549 35.9185 111.314 34.9147C109.098 33.9109 106.446 33.409 103.359 33.409H99.9503V28.6363H103.359C105.878 28.6363 108.104 28.1818 110.035 27.2727C111.986 26.3446 113.52 25.0473 114.638 23.3806C115.755 21.714 116.314 19.7537 116.314 17.4999C116.314 15.3598 115.831 13.4753 114.865 11.8465C113.899 10.2177 112.536 8.93934 110.774 8.01131C109.032 7.08328 106.996 6.61926 104.666 6.61926C102.412 6.61926 100.348 7.05487 98.473 7.92608C96.598 8.79729 95.0828 10.0284 93.9275 11.6193C92.7912 13.2102 92.1851 15.0946 92.1094 17.2727H86.9673C87.0431 14.2424 87.8764 11.5814 89.4673 9.28972C91.0772 6.97911 93.2078 5.17987 95.8594 3.89199C98.5298 2.58517 101.484 1.93176 104.723 1.93176C108.151 1.93176 111.115 2.63252 113.615 4.03404C116.115 5.43555 118.047 7.30108 119.41 9.63063C120.793 11.9412 121.484 14.4886 121.484 17.2727C121.484 20.5871 120.585 23.428 118.785 25.7954C116.986 28.1439 114.562 29.7727 111.513 30.6818V31.0511C115.225 31.7897 118.142 33.4374 120.263 35.9943C122.403 38.5321 123.473 41.6477 123.473 45.3409C123.473 48.4469 122.659 51.2405 121.03 53.7215C119.401 56.1837 117.166 58.1344 114.325 59.5738C111.503 60.9943 108.265 61.7045 104.609 61.7045Z" fill="#FFCCCC"/>
<path d="M54.723 61.7045C50.6321 61.7045 47.1378 60.5303 44.24 58.1818C41.3613 55.8143 39.1453 52.3958 37.5923 47.9261C36.0582 43.4564 35.2912 38.0871 35.2912 31.8181C35.2912 25.5681 36.0582 20.2177 37.5923 15.767C39.1453 11.2973 41.3707 7.87873 44.2685 5.51131C47.1851 3.12494 50.67 1.93176 54.723 1.93176C58.776 1.93176 62.2514 3.12494 65.1491 5.51131C68.0658 7.87873 70.2912 11.2973 71.8253 15.767C73.3783 20.2177 74.1548 25.5681 74.1548 31.8181C74.1548 38.0871 73.3783 43.4564 71.8253 47.9261C70.2912 52.3958 68.0753 55.8143 65.1775 58.1818C62.2988 60.5303 58.8139 61.7045 54.723 61.7045ZM54.723 56.9318C59.2116 56.9318 62.7154 54.7443 65.2344 50.3693C67.7533 45.9753 69.0128 39.7916 69.0128 31.8181C69.0128 26.5151 68.4351 21.9886 67.2798 18.2386C66.1435 14.4696 64.5052 11.5909 62.365 9.60222C60.2438 7.61358 57.6965 6.61926 54.723 6.61926C50.2722 6.61926 46.7779 8.83517 44.24 13.267C41.7022 17.6799 40.4332 23.8636 40.4332 31.8181C40.4332 37.1212 41.0014 41.6477 42.1378 45.3977C43.2931 49.1477 44.9313 52.0075 47.0525 53.9772C49.1927 55.9469 51.7495 56.9318 54.723 56.9318Z" fill="#FFCCCC"/>
<path d="M29.1761 0L10.4261 69.6591H0L18.75 0H29.1761Z" fill="#FFCCCC"/>
</svg>
