<svg width="125" height="70" viewBox="0 0 125 70" fill="none" xmlns="http://www.w3.org/2000/svg">
<path d="M84.3252 48.4091V44.0909L110.263 2.72729H113.445V9.97161H111.087L90.2627 43.2671V43.6364H124.268V48.4091H84.3252ZM111.484 60.9091V47.0455V45.0568V2.72729H116.541V60.9091H111.484Z" fill="#FFCCCC"/>
<path d="M54.723 61.7046C50.632 61.7046 47.1377 60.5304 44.24 58.1819C41.3612 55.8145 39.1453 52.3959 37.5923 47.9262C36.0582 43.4565 35.2911 38.0872 35.2911 31.8182C35.2911 25.5682 36.0582 20.2179 37.5923 15.7671C39.1453 11.2974 41.3707 7.87885 44.2684 5.51143C47.1851 3.12507 50.6699 1.93188 54.723 1.93188C58.776 1.93188 62.2514 3.12507 65.1491 5.51143C68.0658 7.87885 70.2911 11.2974 71.8252 15.7671C73.3783 20.2179 74.1548 25.5682 74.1548 31.8182C74.1548 38.0872 73.3783 43.4565 71.8252 47.9262C70.2911 52.3959 68.0752 55.8145 65.1775 58.1819C62.2987 60.5304 58.8139 61.7046 54.723 61.7046ZM54.723 56.9319C59.2116 56.9319 62.7154 54.7444 65.2343 50.3694C67.7533 45.9754 69.0127 39.7917 69.0127 31.8182C69.0127 26.5152 68.4351 21.9887 67.2798 18.2387C66.1434 14.4698 64.5052 11.591 62.365 9.60234C60.2438 7.6137 57.6964 6.61938 54.723 6.61938C50.2722 6.61938 46.7779 8.83529 44.24 13.2671C41.7021 17.68 40.4332 23.8637 40.4332 31.8182C40.4332 37.1213 41.0014 41.6478 42.1377 45.3978C43.293 49.1478 44.9313 52.0076 47.0525 53.9773C49.1927 55.947 51.7495 56.9319 54.723 56.9319Z" fill="#FFCCCC"/>
<path d="M29.1761 0L10.4261 69.6591H0L18.75 0H29.1761Z" fill="#FFCCCC"/>
</svg>
