<svg width="1046" height="7" viewBox="0 0 1046 7" fill="none" xmlns="http://www.w3.org/2000/svg">
<path d="M6.60046e-06 3.81995C0.0016332 5.29365 1.19762 6.487 2.67132 6.48538C4.14502 6.48375 5.33837 5.28776 5.33674 3.81406C5.33511 2.34037 4.13913 1.14702 2.66543 1.14864C1.19173 1.15027 -0.00162 2.34626 6.60046e-06 3.81995ZM1040.66 2.67132C1040.67 4.14502 1041.86 5.33837 1043.33 5.33674C1044.81 5.33511 1046 4.13913 1046 2.66543C1046 1.19173 1044.8 -0.00161926 1043.33 7.36213e-06C1041.86 0.00163398 1040.66 1.19762 1040.66 2.67132ZM2.66837 3.81701L2.66893 4.31733L1043.33 3.16869L1043.33 2.66837L1043.33 2.16806L2.66782 3.31669L2.66837 3.81701Z" fill="#791815"/>
</svg>
