<svg width="242" height="242" viewBox="0 0 242 242" fill="none" xmlns="http://www.w3.org/2000/svg">
<path d="M239.195 118.191H127.787L137.401 108.585L188.664 57.3318L188.702 57.2943L188.739 57.2568C189.011 56.9942 189.218 56.694 189.368 56.3469C189.518 55.9999 189.593 55.634 189.593 55.2588C189.593 54.8836 189.527 54.5178 189.386 54.1707C189.246 53.8236 189.039 53.5141 188.767 53.2421C188.505 52.9794 188.195 52.7731 187.848 52.6324C187.51 52.4917 187.145 52.426 186.779 52.426C186.385 52.426 186.01 52.5104 185.672 52.6511C185.325 52.8012 185.025 53.0076 184.762 53.2796L184.734 53.3171L184.696 53.3546L133.433 104.608L123.828 114.213V2.81406C123.828 2.06365 123.537 1.36013 123.003 0.825458C122.468 0.290787 121.764 0 121.014 0C120.264 0 119.56 0.290787 119.025 0.825458C118.491 1.36013 118.2 2.06365 118.2 2.81406V114.223L108.595 104.608L57.3412 53.3359L57.3037 53.2984L57.2662 53.2608C57.0035 52.9888 56.694 52.7824 56.3563 52.6324C56.0092 52.4823 55.6434 52.4072 55.2682 52.4072C54.8742 52.4072 54.5178 52.4729 54.1801 52.6136C53.833 52.7543 53.5235 52.9607 53.2515 53.2327C52.9888 53.4953 52.7824 53.8049 52.6324 54.1519C52.4917 54.499 52.4166 54.8648 52.426 55.2401C52.426 55.6153 52.501 55.9811 52.6511 56.3282C52.8012 56.6752 53.0076 56.9848 53.2796 57.238L53.3171 57.2756L53.3546 57.3131L104.617 108.585L114.223 118.191H2.81406C2.06365 118.191 1.36013 118.481 0.825458 119.016C0.290787 119.551 0 120.254 0 121.005C0 121.755 0.290787 122.459 0.825458 122.993C1.36013 123.528 2.06365 123.819 2.81406 123.819H114.223L104.608 133.424L53.3921 184.631C52.895 185.165 52.623 185.85 52.623 186.582C52.623 187.323 52.9231 188.026 53.4484 188.542C53.9737 189.068 54.6679 189.358 55.4089 189.368C56.1593 189.368 56.8441 189.096 57.36 188.608L108.576 137.401L118.181 127.796V239.186C118.181 239.936 118.472 240.64 119.007 241.175C119.541 241.709 120.245 242 120.995 242C121.746 242 122.449 241.709 122.984 241.175C123.519 240.64 123.809 239.936 123.809 239.186V127.777L133.415 137.392L184.621 188.608C185.147 189.105 185.831 189.377 186.554 189.377C187.323 189.377 188.017 189.077 188.542 188.552C189.068 188.026 189.358 187.332 189.368 186.591C189.368 185.859 189.105 185.165 188.608 184.64L137.401 133.424L127.796 123.819H239.186C239.936 123.819 240.64 123.528 241.175 122.993C241.709 122.459 242 121.755 242 121.005C242 120.254 241.709 119.551 241.175 119.016C240.64 118.481 239.936 118.191 239.186 118.191H239.195Z" fill="#791815"/>
</svg>
