<svg width="1046" height="7" viewBox="0 0 1046 7" fill="none" xmlns="http://www.w3.org/2000/svg">
<path d="M6.60046e-06 3.81983C0.0016332 5.29353 1.19762 6.48688 2.67132 6.48525C4.14502 6.48363 5.33837 5.28764 5.33674 3.81394C5.33511 2.34024 4.13913 1.14689 2.66543 1.14852C1.19173 1.15015 -0.00162 2.34613 6.60046e-06 3.81983ZM1040.66 2.6712C1040.67 4.14489 1041.86 5.33824 1043.33 5.33662C1044.81 5.33499 1046 4.139 1046 2.66531C1046 1.19161 1044.8 -0.00174141 1043.33 -0.000114786C1041.86 0.00151183 1040.66 1.1975 1040.66 2.6712ZM2.66837 3.81689L2.66893 4.31721L1043.33 3.16857L1043.33 2.66825L1043.33 2.16793L2.66782 3.31657L2.66837 3.81689Z" fill="#791815"/>
</svg>
