<svg width="140" height="140" viewBox="0 0 140 140" fill="none" xmlns="http://www.w3.org/2000/svg">
<path d="M138.377 68.3747H73.9261L79.4884 62.8179L109.145 33.1672L109.166 33.1455L109.188 33.1238C109.345 32.9718 109.465 32.7982 109.552 32.5974C109.638 32.3966 109.682 32.185 109.682 31.9679C109.682 31.7508 109.644 31.5392 109.562 31.3384C109.481 31.1376 109.362 30.9586 109.204 30.8012C109.052 30.6493 108.873 30.5299 108.672 30.4485C108.477 30.3671 108.265 30.3291 108.054 30.3291C107.826 30.3291 107.609 30.3779 107.413 30.4593C107.213 30.5461 107.039 30.6655 106.887 30.8229L106.871 30.8446L106.849 30.8663L77.1929 60.5171L71.6361 66.0739V1.62797C71.6361 1.19384 71.4679 0.786852 71.1586 0.477538C70.8493 0.168224 70.4423 0 70.0081 0C69.574 0 69.167 0.168224 68.8577 0.477538C68.5484 0.786852 68.3802 1.19384 68.3802 1.62797V66.0793L62.8234 60.5171L33.1726 30.8555L33.1509 30.8338L33.1292 30.812C32.9772 30.6547 32.7982 30.5353 32.6028 30.4485C32.402 30.3616 32.1904 30.3182 31.9733 30.3182C31.7454 30.3182 31.5392 30.3562 31.3439 30.4376C31.1431 30.519 30.964 30.6384 30.8066 30.7958C30.6547 30.9477 30.5353 31.1268 30.4485 31.3276C30.3671 31.5284 30.3237 31.74 30.3291 31.9571C30.3291 32.1741 30.3725 32.3858 30.4593 32.5865C30.5461 32.7873 30.6655 32.9664 30.8229 33.1129L30.8446 33.1346L30.8663 33.1563L60.5225 62.8179L66.0793 68.3747H1.62797C1.19384 68.3747 0.786852 68.543 0.477538 68.8523C0.168224 69.1616 0 69.5686 0 70.0027C0 70.4368 0.168224 70.8438 0.477538 71.1531C0.786852 71.4625 1.19384 71.6307 1.62797 71.6307H66.0793L60.5171 77.1875L30.888 106.811C30.6004 107.12 30.443 107.517 30.443 107.94C30.443 108.369 30.6167 108.776 30.9206 109.074C31.2245 109.378 31.626 109.546 32.0547 109.552C32.4889 109.552 32.885 109.394 33.1835 109.112L62.8125 79.4884L68.3693 73.9316V138.372C68.3693 138.806 68.5376 139.213 68.8469 139.522C69.1562 139.832 69.5632 140 69.9973 140C70.4314 140 70.8384 139.832 71.1477 139.522C71.457 139.213 71.6253 138.806 71.6253 138.372V73.9207L77.1821 79.4829L106.806 109.112C107.11 109.4 107.506 109.557 107.924 109.557C108.369 109.557 108.77 109.383 109.074 109.079C109.378 108.776 109.546 108.374 109.552 107.945C109.552 107.522 109.4 107.12 109.112 106.817L79.4884 77.1875L73.9316 71.6307H138.372C138.806 71.6307 139.213 71.4625 139.522 71.1531C139.832 70.8438 140 70.4368 140 70.0027C140 69.5686 139.832 69.1616 139.522 68.8523C139.213 68.543 138.806 68.3747 138.372 68.3747H138.377Z" fill="#791815"/>
</svg>
