<?xml version="1.0" encoding="UTF-8"?>
<svg id="Camada_1" data-name="Camada 1" xmlns="http://www.w3.org/2000/svg" viewBox="0 0 1130.29 703.67">
  <defs>
    <style>
      .cls-1 {
        fill: #cd0005;
      }
    </style>
  </defs>
  <path class="cls-1" d="M0,482.92c0-134.8,84.14-253.32,237.03-253.32,95,0,180.03,40.71,180.03,99.52,0,99.52-146.56,98.61-244.27,121.23-52.47,12.67-90.47,31.66-85.04,76.9,25.33,73.28,85.95,138.42,194.51,138.42,100.42,0,172.8-82.33,209.89-184.56,3.62-6.33,9.95-3.62,7.24,2.71-47.95,130.28-139.33,219.84-270.51,219.84S0,605.05,0,482.92ZM171.9,442.21c75.99-18.09,170.08-23.52,169.18-111.28-.91-47.04-25.33-93.18-104.04-93.18-90.47,0-163.75,67.85-163.75,204.46,0,19.9,2.72,41.62,8.15,63.33,7.24-36.19,45.23-52.47,90.47-63.33Z"/>
  <path class="cls-1" d="M392.64,703.67c-5.43,0-5.43-6.33,0-6.33,68.75-.91,70.57-25.33,70.57-95.9V133.7c0-47.95-11.76-80.52-68.76-76-4.52.9-4.52-4.52,0-5.43,35.28-9.95,101.33-34.38,133.9-51.57,1.81-1.81,5.43,0,5.43,3.62v597.1c0,70.57,1.81,94.99,70.57,95.9,5.43,0,5.43,6.33,0,6.33-47.04,0-55.18-2.71-71.47-2.71h-68.75c-16.29,0-24.43,2.71-71.47,2.71Z"/>
  <g>
    <path class="cls-1" d="M689.38,151.69c11.76-33.47,26.24-42.52,49.76-40.71,43.42,2.71,91.37,44.33,127.56,47.04,53.38,3.62,80.52-47.95,92.28-83.23.91-4.52-4.52-8.14-6.33-2.71-10.86,34.38-25.33,49.76-49.76,47.95-46.14-3.62-85.95-43.42-127.57-47.04-43.42-3.62-80.51,40.71-92.28,76-1.81,4.52,4.52,8.14,6.33,2.71Z"/>
    <path class="cls-1" d="M1122.73,642.15c-13.57,20.81-26.24,41.62-47.95,41.62-19.9,0-30.76-28.04-35.28-52.47l-45.24-254.22c-23.52-132.09-96.8-151.99-171.89-151.99-141.13,0-251.03,89.57-308.93,255.13-.91,1.81-.91,4.52,1.81,5.43,2.72.91,4.52-.9,5.43-2.71,50.67-148.37,158.75-248.79,289.03-248.79,47.95,0,93.18,47.04,111.28,133.9,8.14,116.71-323.89,113.99-323.89,240.65,0,59.71,49.76,94.99,114.9,94.99,133.9,0,218.94-126.66,226.17-241.55l30.76,164.66c6.33,33.47,25.33,74.19,81.42,74.19,41.61,0,60.61-23.52,79.61-55.19,1.81-4.52-4.52-7.24-7.24-3.62ZM768.99,672c-53.38,0-94.09-26.24-94.09-72.38,0-121.23,222.56-119.42,250.6-206.27l7.24,38c-.91,116.71-73.28,240.65-163.75,240.65Z"/>
  </g>
</svg>
