<svg width="31" height="31" viewBox="0 0 31 31" fill="none" xmlns="http://www.w3.org/2000/svg">
<path d="M25.6347 0H4.52731C2.0339 0 0 2.02681 0 4.52076V25.6327C0 28.1266 2.02637 30.1534 4.51977 30.1534H25.6271C28.1205 30.1534 30.1469 28.1266 30.1469 25.6327V4.52076C30.1544 2.02681 28.1281 0 25.6347 0ZM29.1525 25.6327C29.1525 27.5766 27.5782 29.1513 25.6347 29.1513H4.52731C2.5838 29.1513 1.00942 27.5766 1.00942 25.6327V4.52076C1.00942 2.57683 2.5838 1.0021 4.52731 1.0021H25.6347C27.5782 1.0021 29.1525 2.57683 29.1525 4.52076V25.6327ZM15.081 6.03521C10.0942 6.03521 6.0339 10.0964 6.0339 15.0843C6.0339 20.0722 10.0942 24.1333 15.081 24.1333C20.0678 24.1333 24.1281 20.0722 24.1281 15.0843C24.1281 10.0964 20.0678 6.03521 15.081 6.03521ZM15.081 23.1237C10.6441 23.1237 7.04331 19.5146 7.04331 15.0843C7.04331 10.6539 10.6516 7.04485 15.081 7.04485C19.5104 7.04485 23.1186 10.6539 23.1186 15.0843C23.1186 19.5146 19.5104 23.1237 15.081 23.1237ZM25.6347 5.53039C25.6347 6.08795 25.1827 6.53249 24.6328 6.53249C24.0829 6.53249 23.6309 6.08042 23.6309 5.53039C23.6309 4.98037 24.0829 4.52829 24.6328 4.52829C25.1827 4.52829 25.6347 4.98037 25.6347 5.53039Z" fill="white"/>
</svg>
