<svg width="242" height="151" viewBox="0 0 242 151" fill="none" xmlns="http://www.w3.org/2000/svg">
<g clip-path="url(#clip0_2_10)">
<path d="M147.599 34.2008C150.117 27.1151 153.214 25.2061 158.255 25.5845C167.554 26.1578 177.821 34.9632 185.565 35.5365C196.992 36.3047 202.805 25.3896 205.322 17.9256C205.514 16.9682 204.353 16.2 203.965 17.3523C201.639 24.6271 198.541 27.8833 193.309 27.4992C183.43 26.731 174.909 18.3097 165.999 17.5472C156.701 16.779 148.759 26.1635 146.242 33.6275C145.853 34.5849 147.211 35.353 147.599 34.2008Z" fill="white"/>
<path d="M240.382 137.98C237.475 142.383 234.767 146.786 230.114 146.786C225.851 146.786 223.531 140.852 222.562 135.681L212.875 81.8912C207.84 53.9441 192.149 49.7306 176.069 49.7306C149.078 49.7306 127.43 64.865 114.28 93.0585V0.916398C114.28 0.148213 113.503 -0.230147 113.12 0.148213C106.147 3.78849 92.0051 8.95368 84.4526 11.0576C83.4839 11.2468 83.4839 12.399 84.4526 12.2041C96.6573 11.2468 99.1748 18.1375 99.1748 28.2844V116.442C90.4447 131.485 77.2829 142.182 60.4376 142.182C37.1942 142.182 24.2122 128.401 18.7885 112.894C17.6284 103.32 25.761 99.3014 36.997 96.6243C57.9143 91.8374 89.2962 92.0323 89.2962 70.9703C89.2962 58.5303 71.0877 49.914 50.7504 49.914C18.0112 49.9197 0 75.0004 0 103.521C0 129.364 20.726 150.231 49.0044 150.231C71.1574 150.231 88.0026 138.433 99.1748 119.928V127.26C99.1748 142.194 98.7862 147.359 84.0639 147.554C82.9038 147.554 82.9038 148.895 84.0639 148.895C94.134 148.895 95.88 148.322 99.3662 148.322H114.088C117.575 148.322 119.321 148.895 129.391 148.895C130.551 148.895 130.551 147.554 129.391 147.554C114.669 147.365 114.28 142.194 114.28 127.26V97.0542C126.015 69.6804 147.669 51.6453 173.36 51.6453C183.627 51.6453 193.309 61.5973 197.184 79.9764C198.924 104.673 127.836 104.094 127.836 130.894C127.836 143.529 138.492 150.993 152.437 150.993C181.104 150.993 199.313 124.193 200.861 99.8804L207.445 134.718C208.802 141.804 212.869 150.414 224.876 150.414C233.786 150.414 237.852 145.438 241.925 138.737C242.313 137.779 240.956 137.206 240.376 137.969L240.382 137.98ZM15.6909 94.9102C15.6909 66.0058 31.3819 51.6453 50.7504 51.6453C67.6015 51.6453 72.8338 61.4081 73.0252 71.3601C73.2166 89.9284 53.0707 91.075 36.8055 94.9044C27.1183 97.2033 18.9857 100.649 17.4369 108.308C16.2768 103.716 15.6909 99.118 15.6909 94.9044V94.9102ZM164.642 144.298C153.214 144.298 144.496 138.748 144.496 128.985C144.496 103.332 192.149 103.716 198.152 85.3422L199.701 93.3853C199.51 118.082 184.01 144.303 164.642 144.303V144.298Z" fill="white"/>
</g>
<defs>
<clipPath id="clip0_2_10">
<rect width="242" height="150.993" fill="white"/>
</clipPath>
</defs>
</svg>
