<svg width="1024" height="650" viewBox="0 0 1024 650" fill="none" xmlns="http://www.w3.org/2000/svg">
<g clip-path="url(#clip0_2001_87)">
<path d="M624.998 148.278C635.641 117.993 648.74 109.808 670.031 111.445C709.328 113.9 752.724 151.552 785.471 154.008C833.773 157.282 858.339 110.626 868.982 78.6982C869.8 74.6056 864.888 71.3315 863.251 76.2426C853.427 107.346 840.322 121.261 818.218 119.624C776.459 116.35 740.438 80.3352 702.778 77.0611C663.482 73.7871 629.916 113.894 619.268 145.823C617.63 149.915 623.361 153.189 624.998 148.278Z" fill="#791815" fill-opacity="0.05"/>
<path d="M1017.16 592.036C1004.89 610.862 993.42 629.687 973.772 629.687C955.761 629.687 945.937 604.313 941.843 582.213L900.904 352.198C879.618 232.688 813.299 214.68 745.349 214.68C631.265 214.68 539.772 279.392 484.18 399.955V5.94022C484.18 2.66614 480.905 1.02911 479.268 2.66614C449.796 18.218 390.026 40.324 358.098 49.3217C354.005 50.1402 354.005 55.0513 358.098 54.2328C409.681 50.1402 420.323 79.6069 420.323 122.994V499.964C383.429 564.284 327.801 610.043 256.582 610.043C158.335 610.043 103.478 551.104 80.5552 484.804C75.6432 443.878 110.034 426.689 157.517 415.23C245.94 394.767 378.571 395.585 378.571 305.542C378.571 252.338 301.616 215.499 215.649 215.499C77.2745 215.493 1.13772 322.731 1.13772 444.69C1.13772 555.196 88.7419 644.421 208.275 644.421C301.91 644.421 373.117 593.98 420.323 514.836V546.193C420.323 610.037 418.686 632.143 356.467 632.961C351.555 632.961 351.555 638.691 356.467 638.691C399.038 638.691 406.406 636.236 421.148 636.236H483.367C498.11 636.236 505.472 638.691 548.049 638.691C552.961 638.691 552.961 632.961 548.049 632.961C485.829 632.143 484.192 610.043 484.192 546.193V417.035C533.794 299.975 625.311 222.86 733.9 222.86C777.29 222.86 818.23 265.423 834.603 344.006C841.971 449.601 541.499 447.146 541.499 561.744C541.499 615.767 586.533 647.695 645.483 647.695C766.653 647.695 843.615 533.096 850.164 429.138L877.999 578.115C883.73 608.4 900.922 645.239 951.686 645.239C989.345 645.239 1006.54 623.958 1023.74 595.304C1025.37 591.211 1019.64 588.755 1017.19 592.03L1017.16 592.036ZM67.4504 407.857C67.4504 284.255 133.769 222.86 215.643 222.86C286.873 222.86 308.978 264.604 309.796 307.173C310.609 386.575 225.467 391.487 156.692 407.857C115.752 417.679 81.3679 432.412 74.8185 465.159C69.9064 445.515 67.4504 425.864 67.4504 407.857ZM697.042 619.047C648.74 619.047 611.893 595.31 611.893 553.559C611.893 443.872 813.299 445.509 838.678 366.925L845.228 401.303C844.409 506.898 778.915 619.047 697.042 619.047Z" fill="#791815" fill-opacity="0.05"/>
</g>
<defs>
<clipPath id="clip0_2001_87">
<rect width="1024" height="650" fill="white"/>
</clipPath>
</defs>
</svg>
