<svg width="114" height="72" viewBox="0 0 114 72" fill="none" xmlns="http://www.w3.org/2000/svg">
<g clip-path="url(#clip0_2_193)">
<mask id="mask0_2_193" style="mask-type:luminance" maskUnits="userSpaceOnUse" x="0" y="0" width="114" height="72">
<path fill-rule="evenodd" clip-rule="evenodd" d="M114 0H0V72H114V0Z" fill="white"/>
</mask>
<g mask="url(#mask0_2_193)">
<path d="M69.5799 16.4245C70.7647 13.0699 72.223 12.1632 74.5933 12.3446C78.9682 12.6165 83.7994 16.7872 87.445 17.0592C92.8224 17.4219 95.5573 12.2539 96.7422 8.71721C96.8332 8.26388 96.2864 7.90121 96.1041 8.44521C95.0105 11.8905 93.5515 13.4319 91.0907 13.2506C86.4418 12.8879 82.4316 8.89854 78.239 8.53587C73.8642 8.17322 70.1274 12.6158 68.942 16.1526C68.7596 16.6059 69.3976 16.9685 69.5799 16.4245Z" fill="white"/>
<path d="M113.239 65.5793C111.873 67.6646 110.596 69.7499 108.408 69.7499C106.403 69.7499 105.309 66.9392 104.854 64.4912L100.296 39.0126C97.9263 25.7746 90.5431 23.7799 82.9784 23.7799C70.2776 23.7799 60.0919 30.9479 53.9029 44.3026V0.657926C53.9029 0.295259 53.5383 0.113926 53.3561 0.295259C50.075 2.01793 43.4209 4.4666 39.8664 5.46326C39.4108 5.55393 39.4108 6.09793 39.8664 6.00726C45.6091 5.55393 46.7938 8.81792 46.7938 13.6238V55.3805C42.6865 62.5052 36.4935 67.5739 28.5648 67.5739C17.6272 67.5739 11.5201 61.0453 8.96811 53.7013C8.42126 49.1679 12.2499 47.2639 17.5361 45.9946C27.3801 43.7279 42.1456 43.8185 42.1456 33.8445C42.1456 27.9512 33.5784 23.8705 24.0078 23.8705C8.60287 23.8699 0.126709 35.7486 0.126709 49.2579C0.126709 61.4985 9.87952 71.3819 23.1869 71.3819C33.6111 71.3819 41.5385 65.7946 46.7938 57.0279V60.5013C46.7938 67.5732 46.6116 70.0219 39.6848 70.1126C39.138 70.1126 39.138 70.7472 39.6848 70.7472C44.4242 70.7472 45.2445 70.4753 46.8857 70.4753H53.8124C55.4537 70.4753 56.2733 70.7472 61.0133 70.7472C61.5602 70.7472 61.5602 70.1126 61.0133 70.1126C54.0865 70.0219 53.9042 67.5739 53.9042 60.5013V46.1945C59.4263 33.2279 69.6147 24.6859 81.7038 24.6859C86.5343 24.6859 91.0921 29.4006 92.9148 38.1053C93.7351 49.8018 60.2841 49.5299 60.2841 62.2238C60.2841 68.2079 65.2977 71.7446 71.8605 71.7446C85.3501 71.7446 93.9181 59.0505 94.6472 47.5352L97.746 64.0372C98.3841 67.3919 100.298 71.4725 105.949 71.4725C110.142 71.4725 112.056 69.1152 113.971 65.9413C114.153 65.4879 113.515 65.2159 113.242 65.5786L113.239 65.5793ZM7.50918 45.1779C7.50918 31.4866 14.8923 24.6859 24.0072 24.6859C31.9371 24.6859 34.398 29.3099 34.4891 34.0252C34.5796 42.8205 25.1009 43.3646 17.4443 45.1779C12.8865 46.2659 9.05858 47.8979 8.32945 51.5252C7.7826 49.3492 7.50918 47.1725 7.50918 45.1779ZM77.6004 68.5713C72.2231 68.5713 68.1209 65.9419 68.1209 61.3172C68.1209 49.1673 90.5431 49.3486 93.3685 40.6439L94.0977 44.4519C94.0065 56.1486 86.7152 68.5713 77.6004 68.5713Z" fill="white"/>
</g>
</g>
<defs>
<clipPath id="clip0_2_193">
<rect width="114" height="72" fill="white"/>
</clipPath>
</defs>
</svg>
