<svg width="69" height="44" viewBox="0 0 69 44" fill="none" xmlns="http://www.w3.org/2000/svg">
<g clip-path="url(#clip0_4_164)">
<path d="M42.1141 10.0373C42.8313 7.98721 43.7139 7.43314 45.1486 7.54396C47.7965 7.71018 50.7206 10.2589 52.9272 10.4251C56.1819 10.6468 57.8373 7.48855 58.5544 5.32725C58.6096 5.05021 58.2786 4.82858 58.1683 5.16103C57.5063 7.26651 56.6233 8.20844 55.1338 8.09762C52.32 7.87599 49.8928 5.43807 47.3552 5.21644C44.7073 4.99481 42.4455 7.70977 41.728 9.87107C41.6177 10.1481 42.0038 10.3697 42.1141 10.0373Z" fill="#791815"/>
<path d="M68.5392 40.0763C67.7121 41.3506 66.9394 42.625 65.6155 42.625C64.4019 42.625 63.7399 40.9074 63.4641 39.4114L60.7054 23.8411C59.2711 15.7512 54.8024 14.5322 50.2237 14.5322C42.5364 14.5322 36.3713 18.9127 32.6254 27.0739V0.402111C32.6254 0.180482 32.4048 0.069667 32.2944 0.180482C30.3085 1.23322 26.2811 2.72963 24.1297 3.3387C23.8538 3.39411 23.8538 3.72656 24.1297 3.67115C27.6054 3.39411 28.3226 5.38878 28.3226 8.32578V33.8437C25.8365 38.1977 22.0882 41.2952 17.2892 41.2952C10.6691 41.2952 6.97264 37.3055 5.42804 32.8175C5.09705 30.0471 7.41437 28.8836 10.6139 28.1079C16.5721 26.7227 25.5092 26.7781 25.5092 20.6829C25.5092 17.0814 20.3237 14.5876 14.531 14.5876C5.20697 14.5872 0.0766602 21.8464 0.0766602 30.1021C0.0766602 37.5825 5.97968 43.6223 14.0341 43.6223C20.3436 43.6223 25.1417 40.2079 28.3226 34.8504V36.973C28.3226 41.2948 28.2122 42.7912 24.0197 42.8466C23.6887 42.8466 23.6887 43.2345 24.0197 43.2345C26.8883 43.2345 27.3848 43.0683 28.3781 43.0683H32.5707C33.564 43.0683 34.0601 43.2345 36.9291 43.2345C37.2601 43.2345 37.2601 42.8466 36.9291 42.8466C32.7366 42.7912 32.6262 41.2952 32.6262 36.973V28.2301C35.9686 20.306 42.1352 15.0859 49.4522 15.0859C52.376 15.0859 55.1346 17.9671 56.2379 23.2866C56.7344 30.4346 36.4877 30.2683 36.4877 38.0258C36.4877 41.6827 39.5222 43.844 43.4945 43.844C51.6592 43.844 56.8451 36.0865 57.2864 29.0494L59.162 39.1339C59.5482 41.184 60.7066 43.6777 64.1273 43.6777C66.6648 43.6777 67.8233 42.2372 68.9821 40.2975C69.0925 40.0204 68.7063 39.8542 68.5408 40.0759L68.5392 40.0763ZM4.545 27.6088C4.545 19.2419 9.01374 15.0859 14.5306 15.0859C19.3303 15.0859 20.8198 17.9117 20.8749 20.7933C20.9297 26.1682 15.1926 26.5006 10.5583 27.6088C7.79971 28.2737 5.48279 29.271 5.04148 31.4877C4.71049 30.1579 4.54459 28.8277 4.54459 27.6088H4.545ZM46.9686 41.9047C43.7139 41.9047 41.2311 40.2979 41.2311 37.4717C41.2311 30.0467 54.8024 30.1575 56.5125 24.838L56.9538 27.1651C56.8987 34.3131 52.4855 41.9043 46.9686 41.9043V41.9047Z" fill="#791815"/>
</g>
<defs>
<clipPath id="clip0_4_164">
<rect width="69" height="44" fill="white"/>
</clipPath>
</defs>
</svg>
