<svg width="242" height="242" viewBox="0 0 242 242" fill="none" xmlns="http://www.w3.org/2000/svg">
<path d="M239.186 118.186H127.782L137.396 108.581L188.657 57.3296L188.694 57.2921L188.732 57.2546C189.004 56.9919 189.21 56.6918 189.36 56.3447C189.51 55.9977 189.585 55.6319 189.585 55.2567C189.585 54.8815 189.52 54.5157 189.379 54.1686C189.238 53.8216 189.032 53.512 188.76 53.24C188.497 52.9774 188.188 52.771 187.841 52.6303C187.503 52.4896 187.137 52.424 186.771 52.424C186.378 52.424 186.002 52.5084 185.665 52.6491C185.318 52.7991 185.017 53.0055 184.755 53.2775L184.727 53.315L184.689 53.3526L133.428 104.604L123.823 114.209V2.81395C123.823 2.06357 123.533 1.36008 122.998 0.825426C122.463 0.290775 121.76 0 121.009 0C120.259 0 119.556 0.290775 119.021 0.825426C118.486 1.36008 118.195 2.06357 118.195 2.81395V114.218L108.59 104.604L57.339 53.3338L57.3015 53.2963L57.264 53.2588C57.0013 52.9867 56.6918 52.7804 56.3541 52.6303C56.0071 52.4802 55.6412 52.4052 55.266 52.4052C54.8721 52.4052 54.5157 52.4709 54.178 52.6116C53.8309 52.7522 53.5214 52.9586 53.2494 53.2306C52.9867 53.4933 52.7804 53.8028 52.6303 54.1498C52.4896 54.4969 52.4146 54.8627 52.424 55.2379C52.424 55.6131 52.499 55.9789 52.6491 56.326C52.7991 56.673 53.0055 56.9826 53.2775 57.2358L53.315 57.2733L53.3526 57.3109L104.613 108.581L114.218 118.186H2.81395C2.06357 118.186 1.36008 118.477 0.825426 119.011C0.290775 119.546 0 120.25 0 121C0 121.75 0.290775 122.454 0.825426 122.989C1.36008 123.523 2.06357 123.814 2.81395 123.814H114.218L104.604 133.419L53.3901 184.623C52.8929 185.158 52.6209 185.843 52.6209 186.575C52.6209 187.316 52.9211 188.019 53.4464 188.535C53.9716 189.06 54.6657 189.351 55.4067 189.36C56.1571 189.36 56.8419 189.088 57.3578 188.601L108.572 137.396L118.177 127.791V239.177C118.177 239.927 118.467 240.631 119.002 241.165C119.537 241.7 120.24 241.991 120.991 241.991C121.741 241.991 122.445 241.7 122.979 241.165C123.514 240.631 123.805 239.927 123.805 239.177V127.772L133.41 137.387L184.614 188.601C185.139 189.098 185.824 189.37 186.546 189.37C187.316 189.37 188.01 189.07 188.535 188.544C189.06 188.019 189.351 187.325 189.36 186.584C189.36 185.852 189.098 185.158 188.601 184.633L137.396 133.419L127.791 123.814H239.177C239.927 123.814 240.631 123.523 241.165 122.989C241.7 122.454 241.991 121.75 241.991 121C241.991 120.25 241.7 119.546 241.165 119.011C240.631 118.477 239.927 118.186 239.177 118.186H239.186Z" fill="#791815"/>
</svg>
