<svg width="30" height="30" viewBox="0 0 30 30" fill="none" xmlns="http://www.w3.org/2000/svg">
<path d="M21.7782 19.4707C22.0418 19.2069 22.1774 18.8679 22.1774 18.4761C22.1774 18.1144 22.0268 17.7302 21.7782 17.4815L19.7066 15.4095C19.1492 14.852 18.2377 14.852 17.6803 15.4095L16.8818 16.2383L17.1605 16.5171L16.5955 17.0822L16.0908 16.5774C13.9966 15.6205 12.8215 13.7519 12.3017 12.7197L12.1737 12.4635L13.4543 11.1826C14.0117 10.625 14.0117 9.71336 13.4543 9.1558L11.4656 7.16667C11.2019 6.90296 10.8629 6.76733 10.4712 6.76733C10.1096 6.76733 9.72545 6.91803 9.47686 7.16667L8.67837 7.96533C8.24899 8.41741 7.72168 9.17087 7.67649 10.1278C7.56349 11.6347 7.75182 14.5732 10.3582 17.4062L10.9157 18.0014C13.5221 20.7289 16.2641 21.3016 18.1096 21.3016C18.3356 21.3016 18.5465 21.3016 18.7047 21.2714H18.7499C19.571 21.1961 20.362 20.8344 20.9797 20.2543L21.7706 19.4631L21.7782 19.4707ZM18.6595 20.4728C18.4712 20.4878 18.2603 20.4954 18.0268 20.4954C16.4222 20.4954 13.8686 19.9981 11.4505 17.4363L10.9006 16.8863C8.37705 14.0985 8.33939 11.3107 8.43731 10.2408C8.48251 9.62295 8.76876 9.02772 9.22828 8.56057L10.0268 7.7619C10.1247 7.66395 10.298 7.566 10.4637 7.566C10.7198 7.566 10.8629 7.68655 10.9383 7.79204L12.8968 9.75103C13.0098 9.86405 13.0701 10.0223 13.0701 10.1956C13.0701 10.3689 13.0023 10.5271 12.8968 10.6401L11.8196 11.7176C11.4731 12.0642 11.3676 12.6443 11.5786 13.0964C12.5804 15.1006 14.0569 16.5774 15.8347 17.361C16.2716 17.5644 16.814 17.4665 17.1981 17.1123L18.298 16.0123C18.5239 15.7862 18.9533 15.7862 19.1793 16.0123L21.168 18.0014C21.2659 18.0994 21.3639 18.2727 21.3639 18.4384C21.3714 18.6419 21.2358 18.7775 21.1303 18.883L20.3394 19.6741C19.8723 20.1412 19.2772 20.42 18.652 20.4652L18.6595 20.4728Z" fill="white" stroke="white" stroke-width="0.5" stroke-miterlimit="10"/>
<path d="M24.8366 4.4317C22.1398 1.73431 18.5541 0.25 14.7349 0.25C10.9157 0.25 7.3225 1.73431 4.6257 4.4317C0.0155288 9.04287 -0.895959 16.1932 2.41854 21.8215L2.50894 21.9722L0.384644 28.9417L6.98351 26.5608L7.14924 26.6663C12.7538 30.1849 20.1963 29.3411 24.8442 24.6545C27.541 21.9572 29.0249 18.3632 29.0249 14.5431C29.0249 10.7231 27.541 7.12908 24.8442 4.4317H24.8366ZM24.2867 24.097C21.6878 26.6964 18.2227 28.0451 14.7349 28.0451C12.1436 28.0451 9.53719 27.2992 7.26977 25.7847L7.10404 25.6642L1.62005 27.6533L3.39029 21.8517L3.28483 21.6859C-0.0673336 16.3213 0.708561 9.45727 5.1756 4.99679C7.71421 2.45764 11.104 1.0562 14.7274 1.0562C18.3507 1.0562 21.7481 2.45764 24.2792 4.99679C26.8178 7.53595 28.2189 10.9341 28.2189 14.5507C28.2189 18.1748 26.8178 21.5729 24.2792 24.1045L24.2867 24.097Z" fill="white"/>
<path d="M24.2867 24.097L24.008 23.8182M24.2867 24.097C21.6878 26.6964 18.2227 28.0451 14.7349 28.0451C12.1436 28.0451 9.53719 27.2992 7.26977 25.7847L7.10404 25.6642L1.62005 27.6533L3.39029 21.8517L3.28483 21.6859C-0.0673336 16.3213 0.708561 9.45727 5.1756 4.99679C7.71421 2.45764 11.104 1.0562 14.7274 1.0562C18.3507 1.0562 21.7481 2.45764 24.2792 4.99679C26.8178 7.53595 28.2189 10.9341 28.2189 14.5507C28.2189 18.1748 26.8178 21.5729 24.2792 24.1045L24.2867 24.097ZM24.8366 4.4317C22.1398 1.73431 18.5541 0.25 14.7349 0.25C10.9157 0.25 7.3225 1.73431 4.6257 4.4317C0.0155288 9.04287 -0.895959 16.1932 2.41854 21.8215L2.50894 21.9722L0.384644 28.9417L6.98351 26.5608L7.14924 26.6663C12.7538 30.1849 20.1963 29.3411 24.8442 24.6545C27.541 21.9572 29.0249 18.3632 29.0249 14.5431C29.0249 10.7231 27.541 7.12908 24.8442 4.4317H24.8366Z" stroke="white" stroke-width="0.5" stroke-miterlimit="10"/>
</svg>
