<svg width="20" height="19" viewBox="0 0 20 19" fill="none" xmlns="http://www.w3.org/2000/svg">
<g clip-path="url(#clip0_4_61)">
<path d="M15.6068 0H4.30734C1.97062 0 0.0700531 1.82617 0.0700531 4.07143V14.9286C0.0700531 17.1738 1.97062 19 4.30734 19H15.6068C17.9435 19 19.8441 17.1738 19.8441 14.9286V4.07143C19.8441 1.82617 17.9435 0 15.6068 0ZM18.4316 14.9286C18.4316 16.4247 17.1638 17.6429 15.6068 17.6429H4.30734C2.75028 17.6429 1.48248 16.4247 1.48248 14.9286V4.07143C1.48248 2.57531 2.75028 1.35714 4.30734 1.35714H15.6068C17.1638 1.35714 18.4316 2.57531 18.4316 4.07143V14.9286ZM9.95706 4.07143C6.84293 4.07143 4.30734 6.50777 4.30734 9.5C4.30734 12.4922 6.84293 14.9286 9.95706 14.9286C13.0712 14.9286 15.6068 12.4922 15.6068 9.5C15.6068 6.50777 13.0712 4.07143 9.95706 4.07143ZM9.95706 13.5714C7.62034 13.5714 5.71977 11.7453 5.71977 9.5C5.71977 7.25474 7.62034 5.42857 9.95706 5.42857C12.2938 5.42857 14.1943 7.25474 14.1943 9.5C14.1943 11.7453 12.2938 13.5714 9.95706 13.5714ZM16.1085 3.58937C16.235 3.71749 16.3141 3.89554 16.3141 4.07143C16.3141 4.24731 16.2373 4.4232 16.1085 4.55349C15.9751 4.67509 15.7898 4.75109 15.6068 4.75109C15.4237 4.75109 15.2407 4.67726 15.1051 4.55349C14.9785 4.42537 14.8994 4.24731 14.8994 4.07143C14.8994 3.89554 14.9763 3.71966 15.1051 3.58937C15.3672 3.34617 15.8395 3.33749 16.1085 3.58937Z" fill="#791815"/>
</g>
<defs>
<clipPath id="clip0_4_61">
<rect width="20" height="19" fill="white"/>
</clipPath>
</defs>
</svg>
